M48
INCH,TZ
T1C0.020
T2C0.030
T3C0.032
T4C0.035
T5C0.040
T6C0.050
T7C0.080
T8C0.090
T9C0.120
T10C0.150
T11C0.160
%
G90
G05
T1
X13200Y-27425
X13800Y-28125
X14350Y-28775
X14900Y-29375
X19000Y-93275
X22200Y-28825
X24000Y-92450
X25400Y-95075
X26000Y-23625
X26500Y-91450
X28250Y-88450
X28250Y-91450
X28825Y-26850
X33100Y-17825
X34850Y-26850
X38550Y-89875
X38725Y-26175
X40500Y-28375
X41400Y-89150
X42200Y-90925
X42200Y-92200
X42725Y-90400
X47200Y-93275
X47200Y-95525
X57850Y-27100
X58950Y-97350
X59475Y-98100
X63375Y-18525
X69050Y-87850
X69350Y-28375
X69350Y-82900
X69925Y-26450
X70400Y-25975
T3
X15600Y-85000
X16600Y-84000
X16600Y-85000
X16600Y-86000
X17975Y-89875
X17975Y-90875
X18000Y-85000
X19000Y-84000
X19000Y-85000
X19000Y-86000
X21200Y-85000
X22200Y-84000
X22200Y-85000
X22200Y-86000
X24800Y-85000
X25800Y-84000
X25800Y-85000
X25800Y-86000
X28400Y-85000
X29400Y-84000
X29400Y-85000
X29400Y-86000
X30500Y-17550
X30500Y-18550
X30500Y-19550
X31400Y-91600
X31500Y-18550
X32000Y-85000
X32400Y-91600
X33000Y-84000
X33000Y-85000
X33000Y-86000
X33400Y-91600
X35600Y-85000
X36600Y-84000
X36600Y-85000
X36600Y-86000
X39200Y-85000
X40200Y-84000
X40200Y-85000
X40200Y-86000
X42800Y-85000
X43800Y-84000
X43800Y-85000
X43800Y-86000
X46400Y-85000
X47400Y-84000
X47400Y-85000
X47400Y-86000
X50000Y-85000
X51000Y-84000
X51000Y-85000
X51000Y-86000
X53600Y-85000
X54600Y-84000
X54600Y-85000
X54600Y-86000
X57200Y-85000
X58200Y-84000
X58200Y-85000
X58200Y-86000
X60800Y-85000
X61800Y-84000
X61800Y-85000
X61800Y-86000
X64150Y-85000
X65150Y-84000
X65150Y-85000
X65150Y-86000
X66450Y-88800
X67350Y-85000
X67450Y-88800
X68350Y-84000
X68350Y-85000
X68350Y-86000
X70775Y-88300
X70775Y-89300
T4
X11500Y-30500
X11500Y-37500
X11500Y-44500
X11500Y-51500
X11500Y-58500
X11500Y-65500
X11500Y-72500
X11500Y-79500
X12500Y-30500
X12500Y-37500
X12500Y-44500
X12500Y-51500
X12500Y-58500
X12500Y-65500
X12500Y-72500
X12500Y-79500
X13350Y-17600
X13350Y-20600
X14625Y-20250
X14625Y-22250
X15500Y-30500
X15500Y-37500
X15500Y-44500
X15500Y-51500
X15500Y-58500
X15500Y-65500
X15500Y-72500
X15500Y-79500
X16500Y-30500
X16500Y-37500
X16500Y-44500
X16500Y-51500
X16500Y-58500
X16500Y-65500
X16500Y-72500
X16500Y-79500
X18725Y-12725
X18725Y-15725
X18900Y-87500
X19500Y-30500
X19500Y-37500
X19500Y-44500
X19500Y-51500
X19500Y-58500
X19500Y-65500
X19500Y-72500
X19500Y-79500
X20000Y-91450
X20000Y-93450
X20150Y-84900
X20150Y-86150
X20150Y-87500
X20500Y-30500
X20500Y-37500
X20500Y-44500
X20500Y-51500
X20500Y-58500
X20500Y-65500
X20500Y-72500
X20500Y-79500
X23500Y-30500
X23500Y-37500
X23500Y-44500
X23500Y-51500
X23500Y-58500
X23500Y-65500
X23500Y-72500
X23500Y-79500
X23500Y-84900
X23500Y-86150
X24500Y-30500
X24500Y-37500
X24500Y-44500
X24500Y-51500
X24500Y-58500
X24500Y-65500
X24500Y-72500
X24500Y-79500
X24725Y-12725
X24725Y-15725
X27100Y-84900
X27100Y-86150
X27500Y-30500
X27500Y-37500
X27500Y-44500
X27500Y-51500
X27500Y-58500
X27500Y-65500
X27500Y-72500
X27500Y-79500
X28500Y-30500
X28500Y-37500
X28500Y-44500
X28500Y-51500
X28500Y-58500
X28500Y-65500
X28500Y-72500
X28500Y-79500
X29400Y-98500
X30375Y-90600
X30375Y-91600
X30500Y-22625
X30500Y-23525
X30500Y-24450
X30700Y-84900
X30700Y-86150
X30725Y-12725
X30725Y-15725
X31500Y-30500
X31500Y-37500
X31500Y-44500
X31500Y-51500
X31500Y-58500
X31500Y-65500
X31500Y-72500
X31500Y-79500
X32400Y-98500
X32500Y-30500
X32500Y-37500
X32500Y-44500
X32500Y-51500
X32500Y-58500
X32500Y-65500
X32500Y-72500
X32500Y-79500
X33500Y-22625
X33500Y-23525
X33500Y-24450
X34300Y-84900
X34300Y-86150
X34425Y-90600
X34425Y-91600
X35400Y-97500
X35400Y-98500
X35450Y-91600
X35500Y-30500
X35500Y-37500
X35500Y-44500
X35500Y-51500
X35500Y-58500
X35500Y-65500
X35500Y-72500
X35500Y-79500
X35575Y-23600
X36500Y-30500
X36500Y-37500
X36500Y-44500
X36500Y-51500
X36500Y-58500
X36500Y-65500
X36500Y-72500
X36500Y-79500
X36725Y-12725
X36725Y-15725
X37450Y-91600
X37700Y-97500
X37900Y-84900
X37900Y-86150
X38400Y-91600
X38575Y-23600
X39000Y-97500
X39000Y-98700
X39500Y-30500
X39500Y-37500
X39500Y-44500
X39500Y-51500
X39500Y-58500
X39500Y-65500
X39500Y-72500
X39500Y-79500
X40500Y-18100
X40500Y-21100
X40500Y-30500
X40500Y-37500
X40500Y-44500
X40500Y-51500
X40500Y-58500
X40500Y-65500
X40500Y-72500
X40500Y-79500
X41400Y-91600
X41500Y-84900
X41500Y-86150
X41800Y-18100
X42000Y-97500
X42000Y-98700
X42800Y-18100
X43500Y-30500
X43500Y-37500
X43500Y-44500
X43500Y-51500
X43500Y-58500
X43500Y-65500
X43500Y-72500
X43500Y-79500
X44500Y-30500
X44500Y-37500
X44500Y-44500
X44500Y-51500
X44500Y-58500
X44500Y-65500
X44500Y-72500
X44500Y-79500
X45100Y-84750
X45100Y-86000
X47500Y-30500
X47500Y-37500
X47500Y-44500
X47500Y-51500
X47500Y-58500
X47500Y-65500
X47500Y-72500
X47500Y-79500
X48500Y-30500
X48500Y-37500
X48500Y-44500
X48500Y-51500
X48500Y-58500
X48500Y-65500
X48500Y-72500
X48500Y-79500
X48700Y-84900
X48700Y-86150
X51500Y-30500
X51500Y-37500
X51500Y-44500
X51500Y-51500
X51500Y-58500
X51500Y-65500
X51500Y-72500
X51500Y-79500
X52300Y-84900
X52300Y-86150
X52500Y-30500
X52500Y-37500
X52500Y-44500
X52500Y-51500
X52500Y-58500
X52500Y-65500
X52500Y-72500
X52500Y-79500
X54700Y-97850
X54750Y-16400
X55500Y-30500
X55500Y-37500
X55500Y-44500
X55500Y-51500
X55500Y-58500
X55500Y-65500
X55500Y-72500
X55500Y-79500
X55525Y-19900
X55525Y-21100
X55900Y-84900
X55900Y-86150
X56500Y-30500
X56500Y-37500
X56500Y-44500
X56500Y-51500
X56500Y-58500
X56500Y-65500
X56500Y-72500
X56500Y-79500
X56700Y-97850
X57750Y-16400
X58525Y-19900
X58525Y-21100
X59500Y-30500
X59500Y-37500
X59500Y-44500
X59500Y-51500
X59500Y-58500
X59500Y-65500
X59500Y-72500
X59500Y-79500
X59500Y-84800
X59500Y-86050
X60500Y-30500
X60500Y-37500
X60500Y-44500
X60500Y-51500
X60500Y-58500
X60500Y-65500
X60500Y-72500
X60500Y-79500
X62950Y-84900
X62950Y-86150
X63500Y-30500
X63500Y-37500
X63500Y-44500
X63500Y-51500
X63500Y-58500
X63500Y-65500
X63500Y-72500
X63500Y-79500
X64500Y-30500
X64500Y-37500
X64500Y-44500
X64500Y-51500
X64500Y-58500
X64500Y-65500
X64500Y-72500
X64500Y-79500
X65075Y-89300
X65075Y-91300
X66300Y-84900
X66300Y-86150
X67100Y-87000
X67500Y-30500
X67500Y-37500
X67500Y-44500
X67500Y-51500
X67500Y-58500
X67500Y-65500
X67500Y-72500
X67500Y-79500
X68350Y-87000
X68500Y-30500
X68500Y-37500
X68500Y-44500
X68500Y-51500
X68500Y-58500
X68500Y-65500
X68500Y-72500
X68500Y-79500
X68650Y-20050
X68650Y-22050
X68925Y-89300
X68925Y-91300
X71500Y-30500
X71500Y-37500
X71500Y-44500
X71500Y-51500
X71500Y-58500
X71500Y-65500
X71500Y-72500
X71500Y-79500
X72500Y-30500
X72500Y-37500
X72500Y-44500
X72500Y-51500
X72500Y-58500
X72500Y-65500
X72500Y-72500
X72500Y-79500
T5
X14000Y-88500
X14000Y-89500
X14000Y-90500
X14000Y-91500
X14125Y-12725
X14125Y-15275
X14500Y-14225
X15000Y-95000
X15500Y-14225
X15875Y-12725
X15875Y-15275
X16000Y-95000
X16350Y-18750
X16350Y-20250
X16350Y-23250
X16350Y-24750
X17000Y-95000
X17350Y-18750
X17350Y-20250
X17350Y-23250
X17350Y-24750
X18000Y-95000
X18350Y-18750
X18350Y-20250
X18350Y-23250
X18350Y-24750
X19000Y-95000
X19350Y-18750
X19350Y-20250
X19350Y-23250
X19350Y-24750
X20000Y-95000
X20125Y-12725
X20125Y-15275
X20350Y-18750
X20350Y-20250
X20350Y-23250
X20350Y-24750
X20500Y-14225
X21350Y-18750
X21350Y-20250
X21350Y-23250
X21350Y-24750
X21500Y-14225
X21875Y-12725
X21875Y-15275
X22000Y-95000
X22000Y-97000
X22350Y-18750
X22350Y-20250
X22350Y-23250
X22350Y-24750
X23000Y-95000
X23000Y-97000
X23350Y-18750
X23350Y-20250
X23350Y-23250
X23350Y-24750
X24000Y-95000
X24000Y-97000
X24350Y-18750
X24350Y-24750
X25350Y-18750
X25350Y-24750
X26000Y-97000
X26000Y-98000
X26000Y-99000
X26125Y-12725
X26125Y-15275
X26350Y-18750
X26350Y-24750
X26500Y-14225
X27000Y-97000
X27000Y-98000
X27000Y-99000
X27350Y-18750
X27350Y-24750
X27500Y-14225
X27875Y-12725
X27875Y-15275
X28400Y-93000
X28400Y-96000
X29400Y-93000
X29400Y-96000
X30400Y-93000
X30400Y-96000
X31400Y-93000
X31400Y-96000
X32125Y-12725
X32125Y-15275
X32400Y-93000
X32400Y-96000
X32500Y-14225
X33400Y-93000
X33400Y-96000
X33500Y-14225
X33875Y-12725
X33875Y-15275
X34400Y-93000
X34400Y-96000
X35400Y-93000
X35400Y-96000
X36000Y-17500
X36000Y-18500
X36000Y-19500
X36000Y-20500
X36000Y-21500
X36400Y-93000
X36400Y-96000
X37400Y-93000
X37400Y-96000
X38125Y-12725
X38125Y-15275
X38400Y-93000
X38400Y-96000
X38500Y-14225
X39400Y-93000
X39400Y-96000
X39500Y-14225
X39875Y-12725
X39875Y-15275
X40400Y-93000
X40400Y-96000
X41400Y-93000
X41400Y-96000
X43225Y-19500
X43225Y-20500
X43225Y-21500
X43225Y-22500
X43225Y-23500
X43225Y-24500
X43225Y-25500
X43225Y-26500
X44000Y-11100
X44000Y-13100
X44000Y-14100
X44000Y-15100
X44000Y-16100
X44000Y-18100
X44225Y-19500
X44225Y-20500
X44225Y-21500
X44225Y-22500
X44225Y-23500
X44225Y-24500
X44225Y-25500
X44225Y-26500
X45000Y-11100
X45000Y-12100
X45000Y-13100
X45000Y-14100
X45000Y-15100
X45000Y-16100
X45000Y-17100
X45000Y-18100
X45225Y-19500
X45225Y-20500
X45225Y-21500
X45225Y-22500
X45225Y-23500
X45225Y-24500
X45225Y-25500
X45225Y-26500
X45700Y-90400
X45700Y-96400
X46000Y-11100
X46000Y-13100
X46000Y-14100
X46000Y-15100
X46000Y-16100
X46000Y-18100
X46225Y-19500
X46225Y-20500
X46225Y-21500
X46225Y-22500
X46225Y-23500
X46225Y-24500
X46225Y-25500
X46225Y-26500
X46700Y-90400
X46700Y-96400
X47225Y-19500
X47225Y-20500
X47225Y-21500
X47225Y-22500
X47225Y-23500
X47225Y-24500
X47225Y-25500
X47225Y-26500
X47700Y-90400
X47700Y-96400
X48225Y-19500
X48225Y-20500
X48225Y-21500
X48225Y-22500
X48225Y-23500
X48225Y-24500
X48225Y-25500
X48225Y-26500
X48350Y-17750
X48700Y-90400
X48700Y-96400
X49225Y-19500
X49225Y-20500
X49225Y-21500
X49225Y-22500
X49225Y-23500
X49225Y-24500
X49225Y-25500
X49225Y-26500
X49350Y-17750
X49700Y-90400
X49700Y-96400
X50225Y-19500
X50225Y-20500
X50225Y-21500
X50225Y-22500
X50225Y-23500
X50225Y-24500
X50225Y-25500
X50225Y-26500
X50350Y-17750
X50500Y-12200
X50700Y-90400
X50700Y-96400
X51225Y-19500
X51225Y-20500
X51225Y-21500
X51225Y-22500
X51225Y-23500
X51225Y-24500
X51225Y-25500
X51225Y-26500
X51350Y-17750
X51500Y-12200
X51700Y-90400
X51700Y-96400
X52225Y-19500
X52225Y-20500
X52225Y-21500
X52225Y-22500
X52225Y-23500
X52225Y-24500
X52225Y-25500
X52225Y-26500
X52350Y-17750
X52700Y-90400
X52700Y-96400
X53225Y-19500
X53225Y-20500
X53225Y-21500
X53225Y-22500
X53225Y-23500
X53225Y-24500
X53225Y-25500
X53225Y-26500
X53350Y-17750
X53700Y-90400
X53700Y-96400
X54225Y-19500
X54225Y-20500
X54225Y-21500
X54225Y-22500
X54225Y-23500
X54225Y-24500
X54225Y-25500
X54225Y-26500
X54350Y-17750
X54700Y-90400
X54700Y-96400
X55350Y-17750
X55700Y-90400
X55700Y-96400
X56700Y-90400
X56700Y-96400
X60025Y-95200
X61025Y-95200
X61875Y-12275
X61875Y-14675
X61875Y-23675
X62025Y-95200
X62875Y-12275
X62875Y-14675
X62875Y-23675
X63875Y-12275
X63875Y-14675
X63875Y-23675
X64875Y-12275
X64875Y-14675
X64875Y-23675
X65970Y-94308
X65970Y-95292
X66750Y-94308
X66750Y-95292
X70700Y-18600
X70700Y-20100
X71405Y-94110
X71405Y-95490
X71700Y-18600
X71700Y-20100
X72600Y-88500
X72600Y-89500
X72600Y-90500
X72600Y-91500
T6
X13625Y-13725
X16375Y-13725
X19625Y-13725
X22375Y-13725
X25625Y-13725
X28375Y-13725
X31625Y-13725
X34375Y-13725
X37625Y-13725
X40375Y-13725
T7
X59250Y-18550
X67550Y-18550
T8
X67820Y-92430
X67820Y-97170
T9
X27150Y-21750
X58875Y-14675
X58875Y-23675
X67875Y-14675
X67875Y-23675
T10
X61025Y-88600
T11
X11500Y-11500
X11500Y-98500
X12000Y-25000
X12000Y-85000
X72000Y-25000
X72000Y-85000
X72500Y-11500
X72500Y-98500
T2
X70818Y-93363G85X70418Y-93363
G05
X70818Y-96237G85X70418Y-96237
G05
X72905Y-93363G85X72505Y-93363
G05
X72905Y-96237G85X72505Y-96237
G05
T5
X62475Y-98450G85X62475Y-97650
G05
X64125Y-96050G85X63125Y-96050
G05
X64875Y-98450G85X64875Y-97650
G05
T0
M30
