G04 (created by PCBNEW-RS274X (2011-12-28 BZR 3254)-stable) date 3/12/2012 5:51:44 PM*
G01*
G70*
G90*
%MOIN*%
G04 Gerber Fmt 3.4, Leading zero omitted, Abs format*
%FSLAX34Y34*%
G04 APERTURE LIST*
%ADD10C,0.006000*%
%ADD11C,0.015000*%
%ADD12C,0.080000*%
%ADD13R,0.100000X0.060000*%
%ADD14O,0.080000X0.120000*%
%ADD15R,0.090000X0.090000*%
%ADD16C,0.090000*%
%ADD17R,0.085000X0.085000*%
%ADD18C,0.085000*%
%ADD19C,0.260000*%
%ADD20R,0.070000X0.100000*%
%ADD21O,0.070000X0.100000*%
%ADD22R,0.065000X0.040000*%
%ADD23C,0.170000*%
%ADD24R,0.080000X0.080000*%
%ADD25C,0.220000*%
%ADD26C,0.100000*%
%ADD27C,0.200000*%
%ADD28R,0.200000X0.200000*%
%ADD29O,0.240000X0.140000*%
%ADD30C,0.070000*%
G04 APERTURE END LIST*
G54D10*
G54D11*
X10000Y-100000D02*
X10000Y-10000D01*
X74000Y-100000D02*
X10000Y-100000D01*
X74000Y-10000D02*
X74000Y-100000D01*
X10000Y-10000D02*
X74000Y-10000D01*
G54D12*
X33500Y-22625D03*
X30500Y-22625D03*
G54D13*
X52275Y-93275D03*
X52275Y-92775D03*
X52275Y-92275D03*
G54D14*
X23500Y-30500D03*
X24500Y-30500D03*
X19500Y-30500D03*
X20500Y-30500D03*
X15500Y-30500D03*
X16500Y-30500D03*
X11500Y-30500D03*
X12500Y-30500D03*
X19500Y-58500D03*
X20500Y-58500D03*
X27500Y-30500D03*
X28500Y-30500D03*
X31500Y-30500D03*
X32500Y-30500D03*
X35500Y-30500D03*
X36500Y-30500D03*
X39500Y-30500D03*
X40500Y-30500D03*
X43500Y-30500D03*
X44500Y-30500D03*
X47500Y-30500D03*
X48500Y-30500D03*
X51500Y-30500D03*
X52500Y-30500D03*
X55500Y-30500D03*
X56500Y-30500D03*
X59500Y-30500D03*
X60500Y-30500D03*
X63500Y-30500D03*
X64500Y-30500D03*
X67500Y-30500D03*
X68500Y-30500D03*
X71500Y-30500D03*
X72500Y-30500D03*
X11500Y-37500D03*
X12500Y-37500D03*
X15500Y-37500D03*
X16500Y-37500D03*
X19500Y-37500D03*
X20500Y-37500D03*
X23500Y-37500D03*
X24500Y-37500D03*
X27500Y-37500D03*
X28500Y-37500D03*
X31500Y-37500D03*
X32500Y-37500D03*
X35500Y-37500D03*
X36500Y-37500D03*
X39500Y-37500D03*
X40500Y-37500D03*
X43500Y-37500D03*
X44500Y-37500D03*
X47500Y-37500D03*
X48500Y-37500D03*
X51500Y-37500D03*
X52500Y-37500D03*
X55500Y-37500D03*
X56500Y-37500D03*
X59500Y-37500D03*
X60500Y-37500D03*
X63500Y-37500D03*
X64500Y-37500D03*
X67500Y-37500D03*
X68500Y-37500D03*
X71500Y-37500D03*
X72500Y-37500D03*
X11500Y-44500D03*
X12500Y-44500D03*
X15500Y-44500D03*
X16500Y-44500D03*
X19500Y-44500D03*
X20500Y-44500D03*
X23500Y-44500D03*
X24500Y-44500D03*
X27500Y-44500D03*
X28500Y-44500D03*
X31500Y-44500D03*
X32500Y-44500D03*
X35500Y-44500D03*
X36500Y-44500D03*
X39500Y-44500D03*
X40500Y-44500D03*
X43500Y-44500D03*
X44500Y-44500D03*
X47500Y-44500D03*
X48500Y-44500D03*
X51500Y-44500D03*
X52500Y-44500D03*
X55500Y-44500D03*
X56500Y-44500D03*
X59500Y-44500D03*
X60500Y-44500D03*
X63500Y-44500D03*
X64500Y-44500D03*
X67500Y-44500D03*
X68500Y-44500D03*
X71500Y-44500D03*
X72500Y-44500D03*
X11500Y-51500D03*
X12500Y-51500D03*
X15500Y-51500D03*
X16500Y-51500D03*
X19500Y-51500D03*
X20500Y-51500D03*
X23500Y-51500D03*
X24500Y-51500D03*
X27500Y-51500D03*
X28500Y-51500D03*
X31500Y-51500D03*
X32500Y-51500D03*
X35500Y-51500D03*
X36500Y-51500D03*
X39500Y-51500D03*
X40500Y-51500D03*
X43500Y-51500D03*
X44500Y-51500D03*
X47500Y-51500D03*
X48500Y-51500D03*
X51500Y-51500D03*
X52500Y-51500D03*
X55500Y-51500D03*
X56500Y-51500D03*
X59500Y-51500D03*
X60500Y-51500D03*
X63500Y-51500D03*
X64500Y-51500D03*
X67500Y-51500D03*
X68500Y-51500D03*
X71500Y-51500D03*
X72500Y-51500D03*
X11500Y-58500D03*
X12500Y-58500D03*
X15500Y-58500D03*
X16500Y-58500D03*
X71500Y-79500D03*
X72500Y-79500D03*
X23500Y-58500D03*
X24500Y-58500D03*
X27500Y-58500D03*
X28500Y-58500D03*
X31500Y-58500D03*
X32500Y-58500D03*
X35500Y-58500D03*
X36500Y-58500D03*
X39500Y-58500D03*
X40500Y-58500D03*
X43500Y-58500D03*
X44500Y-58500D03*
X47500Y-58500D03*
X48500Y-58500D03*
X51500Y-58500D03*
X52500Y-58500D03*
X55500Y-58500D03*
X56500Y-58500D03*
X59500Y-58500D03*
X60500Y-58500D03*
X63500Y-58500D03*
X64500Y-58500D03*
X67500Y-58500D03*
X68500Y-58500D03*
X71500Y-58500D03*
X72500Y-58500D03*
X11500Y-65500D03*
X12500Y-65500D03*
X15500Y-65500D03*
X16500Y-65500D03*
X19500Y-65500D03*
X20500Y-65500D03*
X23500Y-65500D03*
X24500Y-65500D03*
X27500Y-65500D03*
X28500Y-65500D03*
X31500Y-65500D03*
X32500Y-65500D03*
X35500Y-65500D03*
X36500Y-65500D03*
X39500Y-65500D03*
X40500Y-65500D03*
X43500Y-65500D03*
X44500Y-65500D03*
X47500Y-65500D03*
X48500Y-65500D03*
X51500Y-65500D03*
X52500Y-65500D03*
X55500Y-65500D03*
X56500Y-65500D03*
X59500Y-65500D03*
X60500Y-65500D03*
X63500Y-65500D03*
X64500Y-65500D03*
X67500Y-65500D03*
X68500Y-65500D03*
X71500Y-65500D03*
X72500Y-65500D03*
X11500Y-72500D03*
X12500Y-72500D03*
X15500Y-72500D03*
X16500Y-72500D03*
X19500Y-72500D03*
X20500Y-72500D03*
X23500Y-72500D03*
X24500Y-72500D03*
X27500Y-72500D03*
X28500Y-72500D03*
X31500Y-72500D03*
X32500Y-72500D03*
X35500Y-72500D03*
X36500Y-72500D03*
X39500Y-72500D03*
X40500Y-72500D03*
X43500Y-72500D03*
X44500Y-72500D03*
X47500Y-72500D03*
X48500Y-72500D03*
X51500Y-72500D03*
X52500Y-72500D03*
X55500Y-72500D03*
X56500Y-72500D03*
X59500Y-72500D03*
X60500Y-72500D03*
X63500Y-72500D03*
X64500Y-72500D03*
X67500Y-72500D03*
X68500Y-72500D03*
X71500Y-72500D03*
X72500Y-72500D03*
X11500Y-79500D03*
X12500Y-79500D03*
X15500Y-79500D03*
X16500Y-79500D03*
X19500Y-79500D03*
X20500Y-79500D03*
X23500Y-79500D03*
X24500Y-79500D03*
X27500Y-79500D03*
X28500Y-79500D03*
X31500Y-79500D03*
X32500Y-79500D03*
X35500Y-79500D03*
X36500Y-79500D03*
X39500Y-79500D03*
X40500Y-79500D03*
X43500Y-79500D03*
X44500Y-79500D03*
X47500Y-79500D03*
X48500Y-79500D03*
X51500Y-79500D03*
X52500Y-79500D03*
X55500Y-79500D03*
X56500Y-79500D03*
X59500Y-79500D03*
X60500Y-79500D03*
X63500Y-79500D03*
X64500Y-79500D03*
X67500Y-79500D03*
X68500Y-79500D03*
G54D15*
X64875Y-12275D03*
G54D16*
X63875Y-12275D03*
X62875Y-12275D03*
X61875Y-12275D03*
G54D15*
X64875Y-14675D03*
G54D16*
X63875Y-14675D03*
X62875Y-14675D03*
X61875Y-14675D03*
G54D15*
X61875Y-23675D03*
G54D16*
X62875Y-23675D03*
X63875Y-23675D03*
X64875Y-23675D03*
G54D15*
X48350Y-17750D03*
G54D16*
X49350Y-17750D03*
X50350Y-17750D03*
X51350Y-17750D03*
X52350Y-17750D03*
X53350Y-17750D03*
X54350Y-17750D03*
X55350Y-17750D03*
X72600Y-91500D03*
X72600Y-90500D03*
X72600Y-89500D03*
G54D15*
X72600Y-88500D03*
X14000Y-88500D03*
G54D16*
X14000Y-89500D03*
X14000Y-90500D03*
X14000Y-91500D03*
G54D17*
X24000Y-95000D03*
G54D18*
X23000Y-95000D03*
X22000Y-95000D03*
G54D17*
X24000Y-97000D03*
G54D18*
X23000Y-97000D03*
X22000Y-97000D03*
G54D17*
X27000Y-99000D03*
G54D18*
X26000Y-99000D03*
X27000Y-98000D03*
X26000Y-98000D03*
X27000Y-97000D03*
X26000Y-97000D03*
G54D12*
X33500Y-24450D03*
X30500Y-24450D03*
X33500Y-23525D03*
X30500Y-23525D03*
X38575Y-23600D03*
X35575Y-23600D03*
X40500Y-18100D03*
X40500Y-21100D03*
X32400Y-98500D03*
X29400Y-98500D03*
X38400Y-91600D03*
X41400Y-91600D03*
X42000Y-98700D03*
X39000Y-98700D03*
X18725Y-12725D03*
X18725Y-15725D03*
X24725Y-12725D03*
X24725Y-15725D03*
X30725Y-12725D03*
X30725Y-15725D03*
X42000Y-97500D03*
X39000Y-97500D03*
X36725Y-12725D03*
X36725Y-15725D03*
X13350Y-20600D03*
X13350Y-17600D03*
X57750Y-16400D03*
X54750Y-16400D03*
X58525Y-21100D03*
X55525Y-21100D03*
X58525Y-19900D03*
X55525Y-19900D03*
G54D19*
X12000Y-85000D03*
G54D20*
X16350Y-23250D03*
G54D21*
X17350Y-23250D03*
X18350Y-23250D03*
X19350Y-23250D03*
X20350Y-23250D03*
X21350Y-23250D03*
X22350Y-23250D03*
X23350Y-23250D03*
X23350Y-20250D03*
X22350Y-20250D03*
X21350Y-20250D03*
X20350Y-20250D03*
X19350Y-20250D03*
X18350Y-20250D03*
X17350Y-20250D03*
X16350Y-20250D03*
G54D12*
X30375Y-91600D03*
X30375Y-90600D03*
X34425Y-91600D03*
X34425Y-90600D03*
G54D22*
X61375Y-20275D03*
X61375Y-19775D03*
X61375Y-19275D03*
X61375Y-18775D03*
X61375Y-18275D03*
X61375Y-17775D03*
X61375Y-17275D03*
X61375Y-16775D03*
X65375Y-16775D03*
X65375Y-17275D03*
X65375Y-17775D03*
X65375Y-18275D03*
X65375Y-18775D03*
X65375Y-19275D03*
X65375Y-19775D03*
X65375Y-20275D03*
G54D23*
X59250Y-18550D03*
X67550Y-18550D03*
G54D12*
X68650Y-20050D03*
X68650Y-22050D03*
G54D19*
X72000Y-85000D03*
G54D20*
X16350Y-24750D03*
G54D21*
X17350Y-24750D03*
X18350Y-24750D03*
X19350Y-24750D03*
X20350Y-24750D03*
X21350Y-24750D03*
X22350Y-24750D03*
X23350Y-24750D03*
X24350Y-24750D03*
X25350Y-24750D03*
X26350Y-24750D03*
X27350Y-24750D03*
X27350Y-18750D03*
X26350Y-18750D03*
X25350Y-18750D03*
X24350Y-18750D03*
X23350Y-18750D03*
X22350Y-18750D03*
X21350Y-18750D03*
X20350Y-18750D03*
X19350Y-18750D03*
X18350Y-18750D03*
X17350Y-18750D03*
X16350Y-18750D03*
G54D12*
X41800Y-18100D03*
X42800Y-18100D03*
X35400Y-98500D03*
X35400Y-97500D03*
G54D24*
X66450Y-88800D03*
G54D12*
X67450Y-88800D03*
G54D19*
X72000Y-25000D03*
X12000Y-25000D03*
X72500Y-98500D03*
X11500Y-98500D03*
X11500Y-11500D03*
X72500Y-11500D03*
G54D25*
X27150Y-21750D03*
G54D12*
X37700Y-97500D03*
G54D20*
X56700Y-90400D03*
G54D21*
X55700Y-90400D03*
X54700Y-90400D03*
X53700Y-90400D03*
X52700Y-90400D03*
X51700Y-90400D03*
X50700Y-90400D03*
X49700Y-90400D03*
X48700Y-90400D03*
X47700Y-90400D03*
X46700Y-90400D03*
X45700Y-90400D03*
X45700Y-96400D03*
X46700Y-96400D03*
X47700Y-96400D03*
X48700Y-96400D03*
X49700Y-96400D03*
X50700Y-96400D03*
X51700Y-96400D03*
X52700Y-96400D03*
X53700Y-96400D03*
X54700Y-96400D03*
X55700Y-96400D03*
X56700Y-96400D03*
G54D15*
X52225Y-23500D03*
G54D16*
X53225Y-23500D03*
X54225Y-23500D03*
X54225Y-22500D03*
X53225Y-22500D03*
X52225Y-22500D03*
G54D15*
X49225Y-23500D03*
G54D16*
X50225Y-23500D03*
X51225Y-23500D03*
X51225Y-22500D03*
X50225Y-22500D03*
X49225Y-22500D03*
G54D15*
X46225Y-23500D03*
G54D16*
X47225Y-23500D03*
X48225Y-23500D03*
X48225Y-22500D03*
X47225Y-22500D03*
X46225Y-22500D03*
G54D15*
X43225Y-23500D03*
G54D16*
X44225Y-23500D03*
X45225Y-23500D03*
X45225Y-22500D03*
X44225Y-22500D03*
X43225Y-22500D03*
G54D15*
X53225Y-24500D03*
G54D16*
X53225Y-25500D03*
X53225Y-26500D03*
X54225Y-26500D03*
X54225Y-25500D03*
X54225Y-24500D03*
G54D15*
X51225Y-24500D03*
G54D16*
X51225Y-25500D03*
X51225Y-26500D03*
X52225Y-26500D03*
X52225Y-25500D03*
X52225Y-24500D03*
G54D15*
X49225Y-24500D03*
G54D16*
X49225Y-25500D03*
X49225Y-26500D03*
X50225Y-26500D03*
X50225Y-25500D03*
X50225Y-24500D03*
G54D15*
X47225Y-24500D03*
G54D16*
X47225Y-25500D03*
X47225Y-26500D03*
X48225Y-26500D03*
X48225Y-25500D03*
X48225Y-24500D03*
G54D15*
X45225Y-24500D03*
G54D16*
X45225Y-25500D03*
X45225Y-26500D03*
X46225Y-26500D03*
X46225Y-25500D03*
X46225Y-24500D03*
G54D15*
X43225Y-24500D03*
G54D16*
X43225Y-25500D03*
X43225Y-26500D03*
X44225Y-26500D03*
X44225Y-25500D03*
X44225Y-24500D03*
G54D15*
X54225Y-21500D03*
G54D16*
X54225Y-20500D03*
X54225Y-19500D03*
X53225Y-19500D03*
X53225Y-20500D03*
X53225Y-21500D03*
G54D15*
X52225Y-21500D03*
G54D16*
X52225Y-20500D03*
X52225Y-19500D03*
X51225Y-19500D03*
X51225Y-20500D03*
X51225Y-21500D03*
G54D15*
X50225Y-21500D03*
G54D16*
X50225Y-20500D03*
X50225Y-19500D03*
X49225Y-19500D03*
X49225Y-20500D03*
X49225Y-21500D03*
G54D15*
X48225Y-21500D03*
G54D16*
X48225Y-20500D03*
X48225Y-19500D03*
X47225Y-19500D03*
X47225Y-20500D03*
X47225Y-21500D03*
G54D15*
X46225Y-21500D03*
G54D16*
X46225Y-20500D03*
X46225Y-19500D03*
X45225Y-19500D03*
X45225Y-20500D03*
X45225Y-21500D03*
G54D15*
X44225Y-21500D03*
G54D16*
X44225Y-20500D03*
X44225Y-19500D03*
X43225Y-19500D03*
X43225Y-20500D03*
X43225Y-21500D03*
G54D25*
X67875Y-14675D03*
X58875Y-14675D03*
X67875Y-23675D03*
X58875Y-23675D03*
G54D20*
X41400Y-93000D03*
G54D21*
X40400Y-93000D03*
X39400Y-93000D03*
X38400Y-93000D03*
X37400Y-93000D03*
X36400Y-93000D03*
X35400Y-93000D03*
X34400Y-93000D03*
X33400Y-93000D03*
X32400Y-93000D03*
X31400Y-93000D03*
X30400Y-93000D03*
X29400Y-93000D03*
X28400Y-93000D03*
X28400Y-96000D03*
X29400Y-96000D03*
X30400Y-96000D03*
X31400Y-96000D03*
X32400Y-96000D03*
X33400Y-96000D03*
X34400Y-96000D03*
X35400Y-96000D03*
X36400Y-96000D03*
X37400Y-96000D03*
X38400Y-96000D03*
X39400Y-96000D03*
X40400Y-96000D03*
X41400Y-96000D03*
G54D12*
X37450Y-91600D03*
X35450Y-91600D03*
X56700Y-97850D03*
X54700Y-97850D03*
X20000Y-91450D03*
X20000Y-93450D03*
X68925Y-89300D03*
X68925Y-91300D03*
X68350Y-86000D03*
X68350Y-85000D03*
X68350Y-84000D03*
X67350Y-85000D03*
X65150Y-86000D03*
X65150Y-85000D03*
X65150Y-84000D03*
X64150Y-85000D03*
X61800Y-86000D03*
X61800Y-85000D03*
X61800Y-84000D03*
X60800Y-85000D03*
X58200Y-86000D03*
X58200Y-85000D03*
X58200Y-84000D03*
X57200Y-85000D03*
X54600Y-86000D03*
X54600Y-85000D03*
X54600Y-84000D03*
X53600Y-85000D03*
X51000Y-86000D03*
X51000Y-85000D03*
X51000Y-84000D03*
X50000Y-85000D03*
X47400Y-86000D03*
X47400Y-85000D03*
X47400Y-84000D03*
X46400Y-85000D03*
X43800Y-86000D03*
X43800Y-85000D03*
X43800Y-84000D03*
X42800Y-85000D03*
X40200Y-86000D03*
X40200Y-85000D03*
X40200Y-84000D03*
X39200Y-85000D03*
X36600Y-86000D03*
X36600Y-85000D03*
X36600Y-84000D03*
X35600Y-85000D03*
X33000Y-86000D03*
X33000Y-85000D03*
X33000Y-84000D03*
X32000Y-85000D03*
X29400Y-86000D03*
X29400Y-85000D03*
X29400Y-84000D03*
X28400Y-85000D03*
X25800Y-86000D03*
X25800Y-85000D03*
X25800Y-84000D03*
X24800Y-85000D03*
X22200Y-86000D03*
X22200Y-85000D03*
X22200Y-84000D03*
X21200Y-85000D03*
X19000Y-86000D03*
X19000Y-85000D03*
X19000Y-84000D03*
X18000Y-85000D03*
X16600Y-86000D03*
X16600Y-85000D03*
X16600Y-84000D03*
X15600Y-85000D03*
X30500Y-17550D03*
X30500Y-18550D03*
X30500Y-19550D03*
X31500Y-18550D03*
G54D24*
X70775Y-89300D03*
G54D12*
X70775Y-88300D03*
G54D24*
X17975Y-89875D03*
G54D12*
X17975Y-90875D03*
G54D16*
X39875Y-12725D03*
X38125Y-12725D03*
G54D26*
X40375Y-13725D03*
X37625Y-13725D03*
G54D16*
X38500Y-14225D03*
X39500Y-14225D03*
X33875Y-12725D03*
X32125Y-12725D03*
G54D26*
X34375Y-13725D03*
X31625Y-13725D03*
G54D16*
X32500Y-14225D03*
X33500Y-14225D03*
X27875Y-12725D03*
X26125Y-12725D03*
G54D26*
X28375Y-13725D03*
X25625Y-13725D03*
G54D16*
X26500Y-14225D03*
X27500Y-14225D03*
X21875Y-12725D03*
X20125Y-12725D03*
G54D26*
X22375Y-13725D03*
X19625Y-13725D03*
G54D16*
X20500Y-14225D03*
X21500Y-14225D03*
X15875Y-12725D03*
X14125Y-12725D03*
G54D26*
X16375Y-13725D03*
X13625Y-13725D03*
G54D16*
X14500Y-14225D03*
X15500Y-14225D03*
X15875Y-15275D03*
X14125Y-15275D03*
X21875Y-15275D03*
X20125Y-15275D03*
X27875Y-15275D03*
X26125Y-15275D03*
X33875Y-15275D03*
X32125Y-15275D03*
X39875Y-15275D03*
X38125Y-15275D03*
G54D15*
X70700Y-20100D03*
G54D16*
X71700Y-20100D03*
G54D15*
X70700Y-18600D03*
G54D16*
X71700Y-18600D03*
G54D12*
X65075Y-89300D03*
X65075Y-91300D03*
X14625Y-20250D03*
X14625Y-22250D03*
G54D16*
X36000Y-20500D03*
X36000Y-17500D03*
X36000Y-18500D03*
X36000Y-21500D03*
X36000Y-19500D03*
G54D12*
X20150Y-87500D03*
X18900Y-87500D03*
X20150Y-86150D03*
X20150Y-84900D03*
X23500Y-86150D03*
X23500Y-84900D03*
X27100Y-86150D03*
X27100Y-84900D03*
X30700Y-86150D03*
X30700Y-84900D03*
X34300Y-86150D03*
X34300Y-84900D03*
X37900Y-86150D03*
X37900Y-84900D03*
X41500Y-86150D03*
X41500Y-84900D03*
X45100Y-86000D03*
X45100Y-84750D03*
X48700Y-86150D03*
X48700Y-84900D03*
X52300Y-86150D03*
X52300Y-84900D03*
X55900Y-86150D03*
X55900Y-84900D03*
X59500Y-86050D03*
X59500Y-84800D03*
X62950Y-86150D03*
X62950Y-84900D03*
X66300Y-86150D03*
X66300Y-84900D03*
X67100Y-87000D03*
X68350Y-87000D03*
G54D27*
X64875Y-98050D03*
G54D28*
X62475Y-98050D03*
G54D29*
X63625Y-96050D03*
G54D14*
X61025Y-95200D03*
X60025Y-95200D03*
X62025Y-95200D03*
G54D25*
X61025Y-88600D03*
G54D15*
X15000Y-95000D03*
G54D16*
X16000Y-95000D03*
X17000Y-95000D03*
X18000Y-95000D03*
X19000Y-95000D03*
X20000Y-95000D03*
G54D15*
X50500Y-12200D03*
G54D16*
X51500Y-12200D03*
G54D30*
X71405Y-94110D03*
X71405Y-95490D03*
G54D12*
X33400Y-91600D03*
X31400Y-91600D03*
X32400Y-91600D03*
G54D16*
X46000Y-16100D03*
G54D12*
X45000Y-12100D03*
G54D16*
X44000Y-16100D03*
G54D12*
X45000Y-16100D03*
G54D16*
X46000Y-15100D03*
X44000Y-15100D03*
X45000Y-15100D03*
G54D12*
X45000Y-17100D03*
G54D16*
X44000Y-14100D03*
X46000Y-14100D03*
X45000Y-14100D03*
G54D12*
X45000Y-13100D03*
G54D16*
X46000Y-13100D03*
X44000Y-13100D03*
X45000Y-18100D03*
X45000Y-11100D03*
X46000Y-11100D03*
X44000Y-18100D03*
X44000Y-11100D03*
X46000Y-18100D03*
M02*
