G04 #@! TF.FileFunction,Copper,L2,Bot,Signal*
%FSLAX46Y46*%
G04 Gerber Fmt 4.6, Leading zero omitted, Abs format (unit mm)*
G04 Created by KiCad (PCBNEW 4.0.2-4+6225~38~ubuntu15.10.1-stable) date Fri May 13 21:54:02 2016*
%MOMM*%
G01*
G04 APERTURE LIST*
%ADD10C,0.101600*%
%ADD11C,0.100000*%
%ADD12O,1.600200X2.286000*%
%ADD13C,0.800000*%
%ADD14C,0.500000*%
G04 APERTURE END LIST*
D10*
D11*
X0Y8000000D02*
X0Y750000D01*
X0Y8000000D02*
G75*
G03X0Y10000000I0J1000000D01*
G01*
X32000000Y17250000D02*
G75*
G03X31250000Y18000000I-750000J0D01*
G01*
X0Y750000D02*
G75*
G03X750000Y0I750000J0D01*
G01*
X31250000Y0D02*
G75*
G03X32000000Y750000I0J750000D01*
G01*
X750000Y18000000D02*
G75*
G03X0Y17250000I0J-750000D01*
G01*
X0Y10000000D02*
X0Y17250000D01*
X31250000Y0D02*
X750000Y0D01*
X32000000Y17250000D02*
X32000000Y750000D01*
X750000Y18000000D02*
X31250000Y18000000D01*
D12*
X2030000Y1380000D03*
X4570000Y1380000D03*
X7110000Y1380000D03*
X9650000Y1380000D03*
X12190000Y1380000D03*
X14730000Y1380000D03*
X17270000Y1380000D03*
X19810000Y1380000D03*
X22350000Y1380000D03*
X24890000Y1380000D03*
X27430000Y1380000D03*
X29970000Y1380000D03*
X29970000Y16620000D03*
X27430000Y16620000D03*
X24890000Y16620000D03*
X22350000Y16620000D03*
X19810000Y16620000D03*
X17270000Y16620000D03*
X14730000Y16620000D03*
X12190000Y16620000D03*
X9650000Y16620000D03*
X7110000Y16620000D03*
X4570000Y16620000D03*
X2030000Y16620000D03*
D13*
X2000000Y4000000D03*
X5000000Y6000000D03*
X7500000Y7000000D03*
X10000000Y8000000D03*
X22000000Y8000000D03*
X24500000Y7000000D03*
X27000000Y6000000D03*
X30000000Y4000000D03*
X30000000Y14000000D03*
X27000000Y12000000D03*
X24500000Y11000000D03*
X22000000Y10000000D03*
X10000000Y10000000D03*
X7500000Y11000000D03*
X5000000Y12000000D03*
X2000000Y14000000D03*
D14*
X2030000Y3970000D02*
X2030000Y1380000D01*
X2000000Y4000000D02*
X2030000Y3970000D01*
X4570000Y5570000D02*
X4570000Y1380000D01*
X5000000Y6000000D02*
X4570000Y5570000D01*
X7110000Y6610000D02*
X7110000Y1380000D01*
X7500000Y7000000D02*
X7110000Y6610000D01*
X9650000Y7650000D02*
X9650000Y1380000D01*
X10000000Y8000000D02*
X9650000Y7650000D01*
X22350000Y7650000D02*
X22350000Y1380000D01*
X22000000Y8000000D02*
X22350000Y7650000D01*
X24890000Y6610000D02*
X24890000Y1380000D01*
X24500000Y7000000D02*
X24890000Y6610000D01*
X27430000Y5570000D02*
X27430000Y1380000D01*
X27000000Y6000000D02*
X27430000Y5570000D01*
X29970000Y3970000D02*
X29970000Y1380000D01*
X30000000Y4000000D02*
X29970000Y3970000D01*
X29970000Y14030000D02*
X29970000Y16620000D01*
X30000000Y14000000D02*
X29970000Y14030000D01*
X27430000Y12430000D02*
X27430000Y16620000D01*
X27000000Y12000000D02*
X27430000Y12430000D01*
X24890000Y11390000D02*
X24890000Y16620000D01*
X24500000Y11000000D02*
X24890000Y11390000D01*
X22350000Y10350000D02*
X22350000Y16620000D01*
X22000000Y10000000D02*
X22350000Y10350000D01*
X9650000Y10350000D02*
X9650000Y16620000D01*
X10000000Y10000000D02*
X9650000Y10350000D01*
X7110000Y11390000D02*
X7110000Y16620000D01*
X7500000Y11000000D02*
X7110000Y11390000D01*
X4570000Y12430000D02*
X4570000Y16620000D01*
X5000000Y12000000D02*
X4570000Y12430000D01*
X2030000Y14030000D02*
X2030000Y16620000D01*
X2000000Y14000000D02*
X2030000Y14030000D01*
M02*
