M48
INCH,TZ
T1C0.016
T2C0.035
%
G90
G05
T1
X000787Y005512
X000787Y001575
X001969Y004724
X001969Y002362
X002953Y004331
X002953Y002756
X003937Y003937
X003937Y003150
X008661Y003937
X008661Y003150
X009646Y004331
X009646Y002756
X010630Y004724
X010630Y002362
X011811Y005512
X011811Y001575
T2
X000799Y006543
X000799Y000543
X001799Y006543
X001799Y000543
X002799Y006543
X002799Y000543
X003799Y006543
X003799Y000543
X004799Y006543
X004799Y000543
X005799Y006543
X005799Y000543
X006799Y006543
X006799Y000543
X007799Y006543
X007799Y000543
X008799Y006543
X008799Y000543
X009799Y006543
X009799Y000543
X010799Y006543
X010799Y000543
X011799Y006543
X011799Y000543
T0
M30
