G04 #@! TF.FileFunction,Soldermask,Bot*
%FSLAX46Y46*%
G04 Gerber Fmt 4.6, Leading zero omitted, Abs format (unit mm)*
G04 Created by KiCad (PCBNEW 4.0.2-4+6225~38~ubuntu15.10.1-stable) date Fri May 13 21:54:02 2016*
%MOMM*%
G01*
G04 APERTURE LIST*
%ADD10C,0.101600*%
%ADD11C,0.100000*%
%ADD12O,1.600200X2.286000*%
G04 APERTURE END LIST*
D10*
D11*
X0Y8000000D02*
X0Y750000D01*
X0Y8000000D02*
G75*
G03X0Y10000000I0J1000000D01*
G01*
X32000000Y17250000D02*
G75*
G03X31250000Y18000000I-750000J0D01*
G01*
X0Y750000D02*
G75*
G03X750000Y0I750000J0D01*
G01*
X31250000Y0D02*
G75*
G03X32000000Y750000I0J750000D01*
G01*
X750000Y18000000D02*
G75*
G03X0Y17250000I0J-750000D01*
G01*
X0Y10000000D02*
X0Y17250000D01*
X31250000Y0D02*
X750000Y0D01*
X32000000Y17250000D02*
X32000000Y750000D01*
X750000Y18000000D02*
X31250000Y18000000D01*
D12*
X2030000Y1380000D03*
X4570000Y1380000D03*
X7110000Y1380000D03*
X9650000Y1380000D03*
X12190000Y1380000D03*
X14730000Y1380000D03*
X17270000Y1380000D03*
X19810000Y1380000D03*
X22350000Y1380000D03*
X24890000Y1380000D03*
X27430000Y1380000D03*
X29970000Y1380000D03*
X29970000Y16620000D03*
X27430000Y16620000D03*
X24890000Y16620000D03*
X22350000Y16620000D03*
X19810000Y16620000D03*
X17270000Y16620000D03*
X14730000Y16620000D03*
X12190000Y16620000D03*
X9650000Y16620000D03*
X7110000Y16620000D03*
X4570000Y16620000D03*
X2030000Y16620000D03*
M02*
