M48
INCH,TZ
T1C0.040
%
G90
G05
T1
X010642Y-007630
X010642Y-013630
X011642Y-007630
X011642Y-013630
X012642Y-007630
X012642Y-013630
X013642Y-007630
X013642Y-013630
X014642Y-007630
X014642Y-013630
X015642Y-007630
X015642Y-013630
X016642Y-007630
X016642Y-013630
X017642Y-007630
X017642Y-013630
X018642Y-007630
X018642Y-013630
X019642Y-007630
X019642Y-013630
X020642Y-007630
X020642Y-013630
X021642Y-007630
X021642Y-013630
T0
M30
